<?xml version="1.0" encoding="UTF-8"?>
<svg width="24px" height="24px" viewBox="0 0 24 24" stroke-width="1.5" fill="none" xmlns="http://www.w3.org/2000/svg" color="#ffffff">
  <path d="M7 8.01l.01-.011M7 16.01l.01-.011M15 8.01l.01-.011M15 16.01l.01-.011M7 12.01l.01-.011M15 12.01l.01-.011M7 4h10M7 20h10" stroke="#ffffff" stroke-width="1.5" stroke-linecap="round" stroke-linejoin="round"></path>
  <path d="M21 3.6v16.8a.6.6 0 01-.6.6H3.6a.6.6 0 01-.6-.6V3.6a.6.6 0 01.6-.6h16.8a.6.6 0 01.6.6z" stroke="#ffffff" stroke-width="1.5" stroke-linecap="round" stroke-linejoin="round"></path>
</svg>